<svg fill="none" height="24" viewBox="0 0 24 24" width="24" xmlns="http://www.w3.org/2000/svg"><g stroke="#D5CEA3" stroke-width="1.5"><path d="m6.56457 19.5607c-.58579.5857-1.53554.5857-2.12132 0-.58579-.5858-.58579-1.5356 0-2.1214.58578-.5857 1.53553-.5857 2.12132 0 .58578.5858.58578 1.5356 0 2.1214z"/><g stroke-linejoin="round"><path d="m6.00391 12h.37157c.53043 0 1.03914.2107 1.41421.5858l3.62841 3.6284c.3751.3751.5858.8838.5858 1.4142v.3716" stroke-linecap="round"/><path d="m10.5103 15 8.0456-6.62585c.3328-.27408.5689-.64775.6735-1.06603l.7644-3.05773c.0369-.14748-.0967-.28106-.2442-.24419l-3.0577.76443c-.4183.10457-.792.34063-1.0661.67344l-6.6258 8.04563" stroke-linecap="round"/><path d="m13.9091 2.89255c-1.0491-.59502-1.5736-.89254-1.9084-.89255s-.8594.29748-1.9086.89247c-1.01499.57556-2.07835.93136-3.11573 1.15065-2.05963.4354-3.08946.6531-3.53292 1.19015-.44345.53705-.44345 1.37938-.44345 3.06404v1.66474m9.0006 12.03795c.312 0 .624-.0413.927-.1238.4907-.1336.9523-.421 1.8755-.9958 2.0623-1.284 3.0934-1.9259 3.8748-2.7504.9651-1.0183 1.66-2.2424 2.0265-3.5697.2495-.9035.2893-1.8774.2956-3.5603" stroke-linecap="round"/><path d="m6.5 17.5 3-3"/></g></g></svg>
