<svg enable-background="new 0 0 128 128" viewBox="0 0 128 128" xmlns="http://www.w3.org/2000/svg"><path d="m64 2.167c-34.15 0-61.833 27.683-61.833 61.833s27.683 61.833 61.833 61.833 61.833-27.683 61.833-61.833-27.683-61.833-61.833-61.833zm-17.536 73.792c-14.96-7.48-31.249 6.769-31.249 6.769l15.126-40.728h16.206zm11.536 40.041h-9v-86.781c0-1.653.757-2.219 2.409-2.219h3.989c1.653 0 2.602.566 2.602 2.219zm9.74-5.625c18.118-23.935 8.685-36.166 8.685-36.166-8.772-2.076-15.915 1.634-15.915 1.634l-.132-33.64s19.17.965 35.127-12.831c0 0 16.265 11.451 16.431 33.89.166 22.44-15.274 44.786-44.196 47.113z"/></svg>