<svg viewBox="0 0 1024 1024" xmlns="http://www.w3.org/2000/svg"><path d="M854.173 764.09H712.398l-1.355-2.42c.5-86.68 34.198-175.368 98.214-245.312 47.83-52.26 83.95-121.04 102.458-189.368l-82.338-49.795 76.414-13.79-86.598-51.53L923.276 194.2c-10.445-78.137-57.588-136-154.49-136-94.564 18.373-363.958 23.982-503.32 5.92-17.665-5.75-35.46-9.135-52.818-9.73-.13-.035-.267-.068-.394-.102l.22.097c-45.31-1.502-87.614 16.03-116.71 60.236-40.413 61.41 2.617 166.813 97.48 166.813 5.36 0 10.254-.29 14.728-.832v.734H326.44c-17.922 72.21-62.36 152.533-113.83 233.474-4.317 6.79-8.508 13.72-12.574 20.767l69.657 71.36-112.35 18.817c-65.35 171.65-54.746 363.552 96.402 363.552v-.002l15.634.11v.234h171.174v-.31h451.103c135.99 0 154.656-225.248-37.485-225.248zM452.277 872.407c-.003-.935-.03-1.888-.055-2.836.025.95.052 1.903.055 2.836zm-4.386-35.788c.028.12.048.232.075.35-.027-.116-.047-.23-.074-.346-5.373-23.696-20.778-43.454-40.896-56.175H407c20.115 12.72 35.517 32.476 40.89 56.17zm4.215 29.647c-.047-.952-.107-1.914-.174-2.88.068.966.128 1.928.175 2.88zm-.46-6.386c-.088-.95-.18-1.907-.286-2.874.106.967.198 1.923.286 2.875zm-.764-6.68c-.124-.925-.24-1.845-.383-2.782.144.937.26 1.858.384 2.78zm-1.112-7.144c-.144-.814-.27-1.615-.426-2.437.157.82.282 1.623.426 2.436zM236.578 269.87c28.032-23.87-1.145-80.303-34.72-127.243h115.746c19.346 37.343 21.335 80.462 11.47 127.243H236.58zm89.203 522.253c51.787-17.213 110.47 15.682 122.11 67.013 1.992 8.782 3.27 17.06 3.912 24.882.075-.817.112-1.662.17-2.49-1.29 18.518-6.792 33.935-15.602 46.7h-1.034c-.984 1.412-2.003 2.78-3.062 4.103l1.614-.706c-14.802 19.36-37.54 32.29-64.57 40.636h-28.104l1.368-.6c-29.614-.008-63.612-2.798-63.612-2.798 43.925-.703 62.862-19.294 70.065-40.598-31.298 11.376-64.654-9.072-75.146-39.264-14.162-40.748 12.5-83.784 51.892-96.877zm126.46 83.452c-.02.92-.028 1.846-.066 2.75.038-.905.045-1.83.065-2.75zm-18.22 55.872c.794-1.044 1.576-2.1 2.326-3.182-.748 1.084-1.533 2.138-2.327 3.182z"/></svg>