<svg fill="none" height="400" viewBox="0 0 400 400" width="400" xmlns="http://www.w3.org/2000/svg"><g stroke="#000" stroke-linecap="round" stroke-linejoin="round" stroke-opacity=".9" stroke-width="16"><path d="m200.966 58.4143c96.827-97.5933 73.188 111.4587 8.467 46.8677-15.341-15.306-13.112-27.5173-10.007-46.0992"/><path d="m197.181 135.097c-23.175 34.783-27.001 79.513-27.001 120.279"/><path d="m112.668 185.108c-12.641 7.099-14.7285 16.228-14.7285 24.547"/><path d="m254.164 134.663c27.646 28.607 30.073 81.04 30.073 113.033"/><path d="m197.259 140.007c.65 75.401 6.299 153.716-2.532 228.285"/><path d="m254.631 139.849c-1.149 76.327-11.236 153.143 2.646 228.14"/><path d="m199.203 211.402c17.962-8.665 32.358-3.852 50.813-3.852"/><path d="m113.723 184.19c68.669 31.292 77.322 54.003 176.737 139.917"/><path d="m96.541 208.737c25.78 16.435 58.3 17.902 85.914 31.911"/><path d="m160.363 233.284c13.893 19.501 37.573 26.175 58.913 34.366"/><path d="m261.004 61.4561c-7.347 0-51.645 0-58.912 0"/><path d="m199.203 132.59c13.515 27.981 32.395 55.319 50.813 66.368"/></g></svg>