<svg viewBox="0 0 1024 1024" xmlns="http://www.w3.org/2000/svg"><path d="M942.73 631.395c-13.754-13.755-31.48-22.192-51.675-25.685l-234.21-188.93c-19.358-19.358-48.884-24.978-81.622-18.595-2.718-7.754-6.884-14.662-12.61-20.386l-107.232-86.5.845-.844c-3.9-3.9-8.418-6.966-13.4-9.284l-48.294-38.957c-14.387-14.388-37.626-16.805-62.625-9.042-1.18-7.257-4.138-13.624-9.034-18.52l-92.892-74.938c11.545-29.222 10.23-57.222-6.37-73.822C196.6 38.888 139.426 52.28 95.9 95.806S38.98 196.51 65.987 223.514c16.556 16.554 44.45 17.904 73.586 6.46l74.996 92.973c4.897 4.9 11.268 7.858 18.526 9.037-7.763 25-5.346 48.238 9.04 62.624l43.433 53.84c1.554 2.328 3.305 4.52 5.28 6.55l86.872 107.69c5.723 5.724 12.63 9.89 20.383 12.608-6.383 32.74-.763 62.267 18.594 81.626l188.94 234.225c3.495 20.188 11.93 37.905 25.682 51.654 53.355 53.356 166.316 26.897 252.31-59.097s112.45-198.955 59.098-252.31zM740.998 800.78c37.536-37.535 85.94-51.007 112.92-32.896 1.3 3.102 2.28 6.396 2.943 9.85-8.838 3.596-17.877 9.568-25.96 17.65-21.452 21.452-28.052 49.63-14.743 62.94 2.666 2.665 5.935 4.518 9.62 5.627-2.756 3.217-5.66 6.382-8.745 9.47-37.536 37.535-85.94 51.01-112.92 32.896-11.65-27.812 2.57-71.22 36.885-105.535z"/></svg>